<svg viewBox="0 0 144 144">
<g>
	<path fill="#00703C" d="M4.9,70.9c0-37.6,30.4-68,68-68s68,30.5,68,68c0,37.6-30.5,68-68,68S4.9,108.5,4.9,70.9"/>
	<path fill="#FFFFFF" d="M6.9,70.9c0-36.4,29.6-66,66-66c36.5,0,66,29.5,66,66s-29.5,66-66,66C36.4,136.9,6.9,107.3,6.9,70.9"/>
	<path fill="#00703C" d="M9,70.9C9,35.6,37.6,7,72.9,7c35.3,0,63.9,28.6,63.9,63.8c0,35.3-28.6,63.8-63.9,63.8
		C37.6,134.7,9,106.2,9,70.9"/>
	<path fill="#FFFFFF" d="M33.4,70.6c0-21.7,17.6-39.3,39.3-39.3c21.7,0,39.3,17.6,39.3,39.3c0,21.7-17.6,39.3-39.3,39.3
		C51,109.9,33.4,92.3,33.4,70.6"/>
	<path fill="#FFFFFF" d="M52,32.3c-1.9-4.7-4.3-10.2-6-14.5c2.2-0.9,5.1-2.2,7.5-3.2c2.2-1,5.2-0.9,7.2,1.1c1,1.1,1.4,2.8,1.3,3.9
		c-0.1,1-0.5,1.8-1.2,2.7c1.6,1.5,3.7,3.4,5.5,5.1L61,28.6c-1.8-1.4-2.7-2.2-4.3-3.5c-0.6,0.3-1.1,0.5-1.8,0.7l1.9,4.2L52,32.3
		 M54.7,18.1c-0.9,0.4-1.9,0.8-2.7,1.1c0.5,1,0.8,1.9,1.4,3.1l2.7-1.1c0.6-0.4,0.6-1.4,0.3-2C56.1,18.4,55.2,18,54.7,18.1"/>
	<path fill="#FFFFFF" d="M112.8,26.9c0.9,1.2,1.6,2.6,2,4.1c-1.2,0.6-2,1.2-3.1,1.8c-0.3-1.7-1.2-3.5-2.9-4.3
		c-0.8-0.5-2-0.6-2.9-0.2c-1.4,0.5-2.6,1.7-3.1,3.1c-0.5,1.4,0.1,2.7,0.8,3.7c1.1,1.2,2.5,1.9,4.2,1.9c-0.7,1.2-1.2,2-1.8,2.9
		c-2.7-0.4-5.3-1.9-6.8-4.4c-1.3-2.1-1.4-5.4-0.2-7.6c1.2-2.5,3.6-4,6.2-4.4C108,23.2,111,24.7,112.8,26.9"/>
	<path fill="#FFFFFF" d="M121.1,36.7c-1.4,1.1-3.3,2.4-4.7,3.5c2.2,0.3,4.9,0.5,7.2,0.8c0.8,1.6,1.5,2.9,2.5,4.6l-8.3-0.6
		c-1.6,3-3.2,5.8-4.8,8.6c-1-1.4-1.7-3.2-2.7-4.8c1.1-2.1,2.3-4.6,3.4-6.6c-1.7,1.2-3.4,2.5-5.1,3.8l-3-4.1
		c4.1-3.1,12.5-9.3,12.5-9.3L121.1,36.7"/>
	<path fill="#FFFFFF" d="M21,50.8c-1.7,1.3-2.9,3.3-2.6,5.5c0.1,0.3,0.3,0.9,0.9,0.9c1.3,0.1,2-1.4,2.5-2.4c0.8-1.6,2.2-3.5,4.1-3.6
		c1.7-0.1,3.1,0.3,4.2,1.7c1.7,2,1.4,5.3,0.6,7.6c-0.8,1.7-1.9,3.5-3.6,4.7l-3-1.8c1.6-1.1,3.3-3,3.6-5.1c0-0.7-0.2-1.7-1.1-1.8
		c-1.6-0.1-2.1,2.8-3.4,4.1c-1,1-2.2,1.8-3.8,1.6c-1.5-0.1-2.7-1-3.6-2.2c-1.6-2.5-0.8-6.1,0.2-8c0.6-1.1,1.3-2.2,2.3-3
		C19.2,49.5,20.1,50.2,21,50.8"/>
	<path fill="#FFFFFF" d="M129.3,53c1.4,2.3,2,5.4,1.2,8.2l-3.1-0.2c0.4-1.9,0.7-4.2-0.6-5.7c-0.4-0.5-1.1-0.7-1.6-0.5
		c-1.7,1.3,0.1,4.3-0.9,6.8c-0.5,1.2-1,2-2.3,2.5c-1.7,0.7-3.9,0.3-5.2-1c-2.6-2.7-3.8-6.9-2.2-10.5h3.2c-0.5,1.4-0.9,3.3-0.4,5
		c0.3,0.7,0.6,1.6,1.4,1.8c2.6,0.3,1-3.9,1.5-5.5c0.3-1.2,1-2.6,2.4-3.3C125.2,49.4,128.1,50.8,129.3,53"/>
	<path fill="#FFFFFF" d="M43.7,103.2c0.4,0.8,0.8,1.5,1.1,2.6c-0.9,0.5-2.1,1-3.1,1.5c-0.2-1.8-1.9-3.6-3.7-4.1
		c-1.5-0.4-3.1,0.3-4.2,1.7c-0.9,1.1-1.2,2.6-0.9,4c0.4,1.6,2.7,3.2,4.7,3.3l0.6,0c-0.6,1.2-1,2-1.5,3c-3.3-0.1-6.7-2.1-8-5.3
		c-1.1-2.6-0.6-6,1.1-8.2c2-2.6,5.3-3.3,8.5-2.6C40.6,99.6,42.4,101.2,43.7,103.2"/>
	<path fill="#FFFFFF" d="M55.4,111.7c1.7,2.2,1.7,5.5,0.7,8c-1.2,2.5-3.4,4.1-5.9,4.7c-3,0.5-5.8-0.5-8-2.6c-1.9-2.1-3-5.1-2-8
		c0.9-3.2,3.9-5.5,7.1-5.9C50.6,107.6,53.7,109.1,55.4,111.7 M50.2,111.9c-1.2-0.6-2.5-0.1-3.5,0.7c-1.5,1.5-2.6,3.6-1.9,5.8
		c0.3,0.9,1.1,1.6,2,2c1.3,0.5,2.5,0.1,3.5-0.8c1.5-1.6,2.6-3.7,1.7-5.9C51.7,112.9,50.9,112.1,50.2,111.9"/>
	<path fill="#FFFFFF" d="M84.9,117.2c-2.3,0.3-4.5,0.6-6.7,1c0.1,1,0.2,1.9,0.2,2.8c2.1-0.3,3.9-0.6,5.9-0.8l0.6,3.7
		c-1.9,0.3-4.2,0.6-6.2,0.9c0.1,1.6,0.3,3.6,0.4,5.4c-1.7,0.1-3.3,0.2-5,0.3l-1-15.6c3.7-0.4,7.7-0.9,11.3-1.5
		C84.5,114.5,84.7,115.7,84.9,117.2"/>
	<path fill="#FFFFFF" d="M97.8,110.6l-6,2.9l1,2.5c1.8-0.9,3.4-1.6,5.3-2.4c0.4,0.9,0.9,1.9,1.3,3c-1.7,0.8-3.5,1.6-5.3,2.4
		c0.4,0.8,0.6,1.4,1.2,2.7l6.5-3l1.4,3.2c-3.8,1.7-7.9,3.6-11.4,5.2l-5.6-14.2c3.6-1.5,6.9-3.2,10.3-4.9
		C96.9,108.7,97.8,110.6,97.8,110.6"/>
	<path fill="#FFFFFF" d="M70.8,118.6c-2.3-0.4-4.5-0.8-6.7-1.1c-0.3,1.1-0.5,2.2-0.7,3c2,0.4,3.7,0.6,5.8,1l-0.5,3.6
		c-2-0.3-4.1-0.7-6.2-1c-0.4,1.6-0.8,3.4-1.2,5.2c-1.6-0.4-3.2-0.8-4.9-1.2l3.8-15.3c3.7,0.8,7.5,1.5,11,2
		C71.1,115.9,71,117.2,70.8,118.6"/>
	<path d="M111.3,135.2c0-2.8,2.3-5.1,5.1-5.1c2.8,0,5,2.3,5,5.1c0,2.8-2.2,5.1-5,5.1C113.5,140.3,111.3,138,111.3,135.2
		 M120.8,135.2c0-2.5-2-4.5-4.4-4.5c-2.5,0-4.5,2-4.5,4.5c0,2.5,2,4.5,4.5,4.5C118.8,139.7,120.8,137.7,120.8,135.2 M118.8,138.1
		H118l-1.6-2.6h-1.3v2.6h-0.7v-5.7h2.5c0.5,0,1,0,1.4,0.3c0.4,0.2,0.6,0.7,0.6,1.2c0,1.1-0.8,1.5-1.8,1.6L118.8,138.1z M116.2,134.9
		c0.8,0,2,0.1,2-1c0-0.9-0.8-1-1.5-1h-1.6v2H116.2z"/>
	<polygon fill="#FFFFFF" points="26.6,33.7 29.9,35.7 27.4,39.7 37,45.9 34.5,50.1 24.8,44 22.4,47.8 19.2,45.7 	"/>
	<path fill="#FFFFFF" d="M36.6,28.8l2.1,4.8l2.3-2.1L36.6,28.8z M31.3,28.6l5.9-5l14.3,9l-4.1,2.7l-3.1-1.7l-4,3.5l1.4,3.3l-3.6,4
		L31.3,28.6z"/>
	<path fill="#FFFFFF" d="M79.1,12.7c1.1,1,1.3,2.5,1.1,3.6c-0.2,1-0.9,2-1.7,2.6c1.1,0.8,2.1,1.5,2.4,3.1c0.3,1.5-0.2,2.7-1,3.7
		c-1.7,1.9-4.2,1.6-6.7,1.7h-6.6l0-0.6L66,11.9c3.4,0,4.4,0,7.6,0C77.8,11.9,78.4,12.2,79.1,12.7 M74.1,14.8c-0.6,0-2.1,0-2.8,0
		c0,0.9,0.1,2,0.1,2.9c0.8,0,2,0,2.8,0c1-0.1,1-1.1,1-1.5C75.2,15.8,75.1,14.9,74.1,14.8 M74.4,20.6c-0.6,0-2.1,0-2.8,0
		c0,0.9,0.1,2.2,0.1,3.1c0.8,0,2,0,2.8,0c1-0.1,1-1.2,1-1.6C75.5,21.7,75.4,20.8,74.4,20.6"/>
	<path fill="#FFFFFF" d="M69.7,49.1c1.7,0.2,4,0.2,5.8,0l-2.9-2.2C72.6,46.9,70.6,48.4,69.7,49.1"/>
	<path fill="none" stroke="#FFFFFF" stroke-width="0" stroke-linecap="square" stroke-miterlimit="2" d="M69.7,49.1
		c1.7,0.2,4,0.2,5.8,0l-2.9-2.2C72.6,46.9,70.6,48.4,69.7,49.1z"/>
	<polygon fill="#FFFFFF" points="121.2,81.6 116.3,81.6 120.1,84.7 118.7,89.4 123,86.7 127.3,89.4 125.9,84.7 129.7,81.6 
		124.8,81.6 123,77 	"/>
	<polygon fill="#FFFFFF" points="20.7,81.6 15.7,81.6 19.6,84.7 18.2,89.4 22.5,86.7 26.8,89.4 25.4,84.7 29.3,81.6 24.4,81.6 
		22.5,77 	"/>
	<path fill="#FFFFFF" d="M108.4,101.7l-5,4.5l1.7,2.1c1.5-1.3,2.8-2.4,4.4-3.8c0.6,0.7,1.4,1.6,2.1,2.5c-1.4,1.2-2.9,2.5-4.4,3.8
		c0.6,0.7,1,1.2,1.9,2.3l5.4-4.7l2.2,2.7c-3.1,2.7-6.6,5.6-9.6,8.1l-9.3-12.2c3-2.5,5.8-4.9,8.6-7.6
		C107.1,100.1,108.4,101.7,108.4,101.7"/>
	<path fill="#FFFFFF" d="M87.8,23.3c-0.6,1.4-0.8,2.5,1.6,3.2c1.3,0.4,2.1-0.2,2.6-1.6l3.5-8.6l5,2.2l-3.3,8.3
		c-1.8,4.7-4.6,5.3-9.5,3.5c-5.4-2-6.7-4.5-5-8.8l3.1-8.6l5.2,1.7L87.8,23.3"/>
	<path d="M69.7,68.3l0.1,0.5c1.1,0.7,1.4,1.9,2.9,1.8c1.3,0.1,2.3-1.2,3-2.2C73.9,68.2,71.7,68.6,69.7,68.3z M109.2,72
		c-4.3,1.7-7.1-2.6-11.2-2.6c-0.5-0.6-0.6-1.4-0.9-2.1c4.6-1.5,7.7,5.2,12.2,1.7c-0.3-5.6-1.5-10.9-4.1-15.6
		c-2.7-5.4-7.7-10.6-12.9-13.8c-9.8-7-25.9-7.5-36.3-1.5c-11.7,6-18.7,18-19.6,30.5c0,0-0.1,0.4,0.3,0.7c4.4,2.4,7.2-2.8,11.5-2.2
		c1.1,0.2,0.1,1.2-0.2,1.8c-0.3,0.8-1.5,0.4-2.2,0.7c-2.9,1.3-5.9,3.7-9.4,2.4c0,0,0,0.3,0,0.6c0.1,0.9,0.2,2.6,0.2,2.6
		c3.8,1.2,6.3-2.8,9.9-2.3c-0.1,0.8-0.1,1.7-0.6,2.2c-3.3,0.2-5.4,3.3-8.9,3.1l0.7,2.6c2.9,0.4,4.9-2.8,8-2.5l-0.1,2
		c-2.7,0.3-4.4,2.7-7,2.9c0.4,6.1,4.6-0.9,7.3,0.3c0.1,0.7,0.5,1.3,0.3,2c-2.2,0-3.5,1.9-5.4,2.5c0.3,0.8,0.5,1.9,1.4,2.2
		c1.6-0.7,2.9-2.1,4.8-2c-0.2-0.7-0.3-1.6-0.3-2.3c2.4,0.6,3.8-1.2,5.5-2.3c0.4-3.4,2.8-6,4.2-8.9c0.3-0.6,0.2-1.3,0.2-2
		c-0.1-3.6-2-7.2-0.6-10.8c0.5-1.4,1.5-3.4,3-3.8c-2.9,3.4-2.3,8.6-0.8,12.4c0.2,0.4,0.4,1.5,0.4,2.2c-0.1,3-3,5.3-4,8.1
		c-1.3,2.7-0.1,5.9,1.4,8.1c-2.2,1.7-5,4.4-7,3.9c-0.8-0.4-0.8-1.5-1.2-2.2c-1.7-0.3-3,0.8-4.4,1.7l1.6,2c1.2-0.5,2.9-1.9,3.8-0.9
		c2,2.3-1.9,1.2-2.4,2.6c0.6,0.7,1.2,1.3,1.9,1.9c0.8-0.3,1.7-1,2.4-0.8c0.2,0.1,0.8,0.9,1,1.5L50,99.4c1.1,1.1,2.4,2.2,3.7,2.7
		c0.8-2.6,2.8-4.7,3.8-7.1c0.4-1.2,0.5-2.2,0.5-3c2.8,4.3-3.1,6.9-3.1,11c0.6,0.6,1.3,0.9,2.1,1.2c-0.1-3.2,2.6-5.3,3.7-8
		c2.1-4.3-2.7-7-4.2-10.5c-1.4-3.2,0.6-6.1,2.6-8.5c1.4-1.5,1.8-3,1.6-4.4c-0.3-3.3-2.9-6.5-1.9-10.4c0.6-2.4,1.7-5.1,4.1-6.1
		c-1.7,2-2.6,4.4-2.8,7c-0.3,4,2.4,6.2,2.6,9.4c0,0.7,0,1.3-0.3,2c-1.3,2.9-4.4,5.1-4.4,8.6c-0.4,4.6,5.6,6.3,5,11
		c0,4.1-4.7,6.4-3.7,10.8l2.6,0.8c-1.5-5,3.7-7.7,3.7-12.2c0.3-3.8-3.8-5.7-4.8-9c-1.1-3.2,1.3-5.8,3.1-8.2c0.9-1.4,1.1-2.7,0.9-3.9
		c-0.4-3.1-2.9-6.1-2.8-9.5c-0.1-3.2,1.3-6.2,4.1-7.7c-0.8,1.2-1.8,2.3-2.2,3.6c-1.7,4.7,1.2,8.6,2.6,12.6c0.1,0.3,0.2,0.6,0.2,0.9
		c0.5,3.7-3.2,6-3.9,9.4c-1,4.1,3.4,6,4.4,9.4c2.1,5.5-4.6,8.8-3.1,14.3c0.4,1.4,1.9,1.3,2.9,1.3c-2.5-4.6,1.5-8.4,2.7-12.3
		c1.4-4.3-2.7-6.7-4.4-10c-1.8-3.7,2.3-6,3.1-9.1c0.7-2.1,2.5-0.4,3.9-0.4c1.8,0,4.1-1.6,4.5-0.2c0.7,2.8,3.9,4.6,4,7.6
		c-0.1,4.8-7,7.2-4.8,12.4c1.8,3.6,4.9,7.8,2.8,11.9l2.6-0.6c1.7-4.3-1.6-7.7-3-11c-1.4-4,2.1-6.9,4.1-9.9c2.1-3.5-1.2-6.7-3-9.5
		c-0.6-1.2-0.7-2.3-0.6-3.4c0.3-2.3,1.9-4.4,2.6-6.5c1.5-3.6,0.7-8.1-2.2-10.9l0.1-0.1c1.4,0.8,2.7,2.3,3.3,3.7
		c2.4,4.9-1,9.2-1.9,13.7c0,0.2-0.1,0.7-0.1,0.9c0.1,2.5,2.6,4.4,3.8,6.9c2.1,4.1-1.6,7.1-3.7,10.2c-3.4,5.8,4.7,9.3,3.1,15.1
		l2.5-0.8c0.6-3.1-1.8-5.6-3.2-8.2c-2.1-4.3,1.7-7.5,3.8-10.8c2.1-3.7-1.4-7.4-3.3-10.5c-0.6-0.9-0.8-1.8-0.8-2.8
		c0.1-1.8,1.2-3.6,1.8-5.2c1.4-3.9,0.4-8.6-2.1-11.4c1.7,0.7,3,2.6,3.6,4.1c1.6,4.2-0.5,8.2-1.3,12.1c0,0.1,0,0.3,0,0.4l0,0
		c-0.1,3.6,3.5,5.8,4.5,9.1c1,3.4-1.6,5.9-3.4,8.3c-4.7,6,2.7,8.9,2.7,13.9c0.7-0.3,1.6-0.4,2.1-1.2c-0.3-2.8-2.7-4.8-3.7-7.3
		c-0.4-1.3-0.3-2.7,0.5-3.7l0.2,0.2c-0.3,4.1,3.2,6.5,4.3,10c0.8-0.4,2.4-1.5,3.6-2.6c-0.3-0.3-1-0.7-1.5-0.9
		c-0.3-0.6,0.5-1.2,0.9-1.7l2.3,0.8c0.7-0.6,1.3-1.1,1.9-2c-0.8-0.6-1.8-1-2.8-1.2c0-0.6,0.3-1.1,0.7-1.6c1.4-0.1,2.5,0.6,3.7,1.2
		c0.4-0.4,1.2-1.3,1.6-2l-3.1-1.5c-2.1-1.1-1.5,1.5-2.5,2.2c-2.8-0.1-4.8-2.1-6.9-3.8c0.1-0.9,1.2-2.2,1.6-3.5
		c1.2-4.1-2-7.1-3.8-10.4c-0.5-0.8-0.6-1.6-0.6-2.4c0-2.2,1.3-4.4,1.5-6.7c0.4-3-0.8-5.8-1.9-8.2c0.8,0.5,1.4,0.8,2.1,1.9
		c1.5,3,2,7,0.6,10.5c-0.4,1.1-0.5,1.7-0.4,2.4c0.2,3.8,4.5,6.5,4.6,10.6c1.7,1.2,3.2,3.3,5.4,2.7c0.2,0.8-0.2,1.5-0.2,2.4
		c2-0.1,3.3,1.4,5,1.9c0.4-0.7,1.1-1.4,1.1-2.3c-2-0.6-3.4-2.5-5.6-2.6l0.4-1.9c2.3-0.1,4,1.9,6.2,2.4c0.7-0.6,0.9-1.6,1.2-2.5
		c-2.6-0.4-4.6-2.7-7.2-3.1c0-0.8-0.2-1.5,0.1-2c2.5,0,3.6,1.7,6.5,2.6c1.8,0.5,2-1.8,2.1-2.6c-3.5,0.1-5.8-3.1-9.2-3.3L99,73
		c3.7-0.6,6.3,3.4,10,2.3c0.1-1.1,0.2-1.8,0.1-2.7C109.2,72.5,109.2,72.2,109.2,72z M54.5,59.3c-1.4,1.4-3.1,3.1-4.1,4.8
		c-3.5-0.7-6.2,1.3-9.1,2.5c-1,0.3-2.6,0.3-3.5-0.4c2.7-4.5,6.6-8.7,5.6-14.6c-0.1-0.7,0.8-0.1,1.2,0.1c2.1,1.7,3.2,4,3.4,6.5
		c2.7-1,6.3-2.8,9.2-0.9C56.2,57.9,55.3,58.6,54.5,59.3z M66.4,60.2c1.3-0.3,2.8,0.1,3.4,1.1v0.3c-0.9-0.1-2.5-1-3.3,0.2
		c-0.5,0.3-0.6-0.4-0.6-0.7C65.9,60.5,66.1,60.3,66.4,60.2z M79.5,57.4c0.2,0.3,0.5,0.9,0.2,1.5c-1.6-0.5-4.2-0.1-5.1,0.4
		c-1.4,1.1-1.2,3.2-0.8,4.7l0.4,0.3c0.7-0.2,0.7-1,1.3-1.2c1,0.2,2.4,0.6,3.4,0c0.9,0,1,1.3,0.9,1.8c-0.6,3.2-2,6.7-5.2,8.2
		c-1.4,0.7-3.6,0.2-4.4-0.3c-3.2-1.9-5-5.7-4.6-9.1c0.1-0.5,0.6-0.9,1.2-0.6c1.3,0.9,2.7-0.7,3.9,0.4c1.4-0.6,0.6-2.4,0.6-3.7
		c-1.2-1.5-3.1-1.3-4.9-1.2c-0.8-0.3,0-1.3,0.2-1.7c1.9-2.6,5.5-2.7,8.6-2.3C76.7,54.8,78.5,55.8,79.5,57.4z M79.3,61.8
		c-1-0.4-2.5-1-3.6-0.2c-0.6-1.3,1.1-1,1.7-1.4c0.9,0,1.9-0.1,2.2,0.7C79.7,61,79.7,61.6,79.3,61.8z M86.6,56.1
		c-2.8-1.1-5.7-2.3-8.8-2.8c-6.7-1.1-13.1,0.3-18.6,3c-0.5-2.8-1.8-5.2-3.5-7.5c0.8-0.5,2.3,0.2,3.2,0.5c1,0.4,1.7,0.7,2.5,1
		c0.2-1.7-0.8-3.3-1.5-4.8c0.6-0.4,1.2-0.1,1.7,0.1c2.2,0.8,4.1,2.1,6.1,3.3l0,0l1.8-4.5l-3.4-3.1c-0.4-0.3-0.4-0.3-0.1-0.4
		c0.4,0,4.6-0.2,4.6-0.2s2-4.2,2-4.3c0,0,0,0,0,0l2,4.2c0,0,4.6,0.3,4.7,0.3c0.1,0,0,0.1,0,0.1l-3.6,3.5l1.7,4.2l0,0
		c2.5-1.5,5-3.3,8-3.5c-0.2,0.9-1.4,3.2-1.4,4.9c1.6-0.7,3.6-1.7,5.6-1.6C88.8,50.2,86.7,53.2,86.6,56.1z M88.6,57.6
		c0.1-0.8,1.4-1,2.3-1.1c2.5-0.2,4.6,0.8,6.6,1.8c0.2-1.1,0.6-1.9,0.8-2.9c0.7-1.6,2-3.3,3.7-4c0.4-0.1,0.6,0.3,0.5,0.8
		c-1.1,5.6,2.8,9.6,5.4,13.9c-3,2-5.8-1.1-8.6-1.8c-1.2-0.3-2.7-0.4-3.9-0.2C93.6,61.6,91.3,59.1,88.6,57.6z M71.2,66.1
		c0,0.2-0.1,0.5,0.2,0.7c0.9-0.2,2.5,0.5,3-0.6C73.7,65.4,72.1,65.5,71.2,66.1z M69.4,49.3c-0.4,0.3,0,0.6,0.2,0.8
		c1.8-0.1,4.1-0.3,6.2-0.1l0.4-0.4c-1-1-2.4-2-3.7-2.7L69.4,49.3z"/>
</g>
</svg>
